<svg xmlns="http://www.w3.org/2000/svg" width="1984" height="2144" viewBox="0 0 1984 2144">
  <defs>
    <linearGradient id="heroGradient" x1="0%" y1="0%" x2="100%" y2="100%">
      <stop offset="0%" style="stop-color:hsl(186, 70%, 42%);stop-opacity:1" />
      <stop offset="100%" style="stop-color:hsl(250, 60%, 60%);stop-opacity:1" />
    </linearGradient>
  </defs>
  <path fill="url(#heroGradient)" fill-rule="evenodd" d="M1202.289 410.057c-26.846 1.18-45.248 5.627-67.789 16.382-21.53 10.274-29.352 16.697-69 56.655-17.05 17.184-42.925 43.252-57.5 57.929s-28.075 27.539-30 28.581c-3.4 1.842-10.425 1.912-247 2.448-264.062.599-241.996.143-263.5 5.444-11.079 2.731-30.708 11.079-42 17.862-12.031 7.227-31.796 24.88-41.585 37.142-21.019 26.329-33.181 58.897-34.915 93.5-.4 7.975-.671 199.225-.602 425l.125 410.5 2.184 10.208c8.578 40.114 29.752 74.116 60.793 97.628 17.331 13.126 40.618 24.228 60 28.605 21.362 4.823-8.921 4.559 523 4.559h499l11.5-2.318c14.927-3.009 26.881-7.032 40.5-13.631 22.942-11.117 40.59-24.996 55.925-43.981 18.374-22.748 29.113-46.842 34.341-77.049 1.63-9.418 1.734-39.968 1.734-508.021 0-410.325-.235-499.408-1.333-506-2.542-15.248-3.389-19.044-6.278-28.126-3.893-12.238-15.336-34.695-23.629-46.374-8.586-12.091-26.53-29.921-37.927-37.686-16.272-11.086-35.346-20.017-50.833-23.802-18.141-4.434-20.949-4.727-52-5.423-40.909-.917-242.503-.941-263.211-.032m-610.622 405.61c-.367.366-.667 18.111-.667 39.432v38.766l2.25.818c2.608.947 796.766.764 799.756-.185 1.945-.617 1.994-1.541 1.98-37.815-.007-20.451-.285-38.196-.616-39.433l-.603-2.25H993.05c-220.394 0-401.017.3-401.383.667M514.5 976.033c-14.488.592-16.926.966-25.791 3.95-22.709 7.646-39.908 23.049-50.668 45.379-2.687 5.576-5.821 13.936-6.963 18.578-2.076 8.431-2.078 8.717-2.078 257.59 0 246.258.023 249.241 2.009 257.006 7.571 29.601 31.439 53.619 60.645 61.028l9.602 2.436h490.807c436.786 0 491.611-.168 498.122-1.531 14.276-2.987 24.16-7.624 35.229-16.528 13.95-11.223 25.363-29.057 29.283-45.76 1.712-7.293 1.803-20.278 1.803-257.181v-249.5l-2.243-8.801c-4.193-16.447-10.681-28.044-22.692-40.561-15.886-16.554-33.094-24.638-55.565-26.101-14.725-.959-938.039-.963-961.5-.004m407.262 80.909c-15.262 4.879-27.069 17.623-31.27 33.751-1.225 4.701-1.492 14.54-1.492 54.909v49.181l-2.436.612c-1.34.336-24.428.595-51.307.576-45.409-.033-49.308.1-55.029 1.881-8.582 2.671-14.129 6.165-20.021 12.612-5.905 6.461-9.769 13.856-11.193 21.422-1.295 6.88-1.304 120.909-.01 130.869 1.191 9.167 4.747 16.718 11.201 23.779 5.595 6.122 10.686 9.456 19.463 12.745 5.646 2.117 7.479 2.203 57.332 2.704l51.5.517.539 52c.343 33.078.929 53.095 1.611 55.009 5.919 16.609 19.064 28.742 34.801 32.122 4.582.984 21.092 1.307 68.071 1.334 57.778.033 62.487-.094 68.827-1.852 12.57-3.486 22.883-12.613 29.467-26.079l3.684-7.534.314-52.306c.236-39.162.613-52.42 1.5-52.759.652-.25 24.586-.562 53.186-.694l52-.241 7.5-3.591c13.382-6.407 21.818-16.156 25.446-29.409 1.461-5.339 1.61-13.331 1.348-72.5l-.294-66.5-3.699-7.747c-4.269-8.939-10.668-15.842-18.651-20.12-10.291-5.515-11.392-5.609-65.931-5.639l-50.282-.029-.862-2.267c-.474-1.247-.906-23.627-.96-49.733s-.385-49.49-.736-51.965c-1.612-11.38-11.686-25.584-22.205-31.309-10.401-5.661-10.905-5.696-81.134-5.637-59.757.05-64.965.19-70.278 1.888"/>
</svg>
